# xmcd
#
# Track frame offsets: 
#        150
#        23100
#        48750
#        72300
#        95850
#        121800
#        161400
#        189000
#
# Disc length: 3262 seconds
#
# Revision: 0
# Processed by: cddbd v1.5.2PL0 Copyright (c) Steve Scherf et al.
# Submitted via: ExactAudioCopy v0.99pb4
#
DISCID=5d0cbc08
DTITLE=Papa George Band  - Nite With You
DYEAR=1996
DGENRE=Blues/Rock
TTITLE0=Nite With You
TTITLE1=It's Flooding Down in Texas
TTITLE2=Heading South
TTITLE3=Guilty
TTITLE4=Somedays
TTITLE5=Rain in the Sky
TTITLE6=Rock the Boat
TTITLE7=Oh Well
EXTD=
EXTT0=
EXTT1=
EXTT2=
EXTT3=
EXTT4=
EXTT5=
EXTT6=
EXTT7=
PLAYORDER=
